<mxfile host="app.diagrams.net" modified="2021-09-07T18:31:43.546Z" agent="5.0 (X11; Linux x86_64) AppleWebKit/537.36 (KHTML, like Gecko) Chrome/92.0.4515.159 Safari/537.36" etag="6CrdMXTd395vcTWpgHSm" version="15.1.1" type="github">
  <diagram id="4lNm3irG5AFYhB3iuOCp" name="Page-1">
    <mxGraphModel dx="1520" dy="709" grid="1" gridSize="10" guides="1" tooltips="1" connect="1" arrows="1" fold="1" page="1" pageScale="1" pageWidth="827" pageHeight="1169" math="0" shadow="0">
      <root>
        <mxCell id="0" />
        <mxCell id="1" parent="0" />
        <mxCell id="uLl7qdjxzRNiDO4C2RXD-37" style="edgeStyle=orthogonalEdgeStyle;rounded=0;orthogonalLoop=1;jettySize=auto;html=1;exitX=1;exitY=0.5;exitDx=0;exitDy=0;entryX=0;entryY=0.5;entryDx=0;entryDy=0;" edge="1" parent="1" source="uLl7qdjxzRNiDO4C2RXD-1" target="uLl7qdjxzRNiDO4C2RXD-12">
          <mxGeometry relative="1" as="geometry" />
        </mxCell>
        <mxCell id="uLl7qdjxzRNiDO4C2RXD-1" value="" style="ellipse;whiteSpace=wrap;html=1;aspect=fixed;" vertex="1" parent="1">
          <mxGeometry x="70" y="140" width="70" height="70" as="geometry" />
        </mxCell>
        <mxCell id="uLl7qdjxzRNiDO4C2RXD-2" value="" style="endArrow=none;html=1;entryX=0.5;entryY=0;entryDx=0;entryDy=0;exitX=0.5;exitY=1;exitDx=0;exitDy=0;" edge="1" parent="1" source="uLl7qdjxzRNiDO4C2RXD-1" target="uLl7qdjxzRNiDO4C2RXD-1">
          <mxGeometry width="50" height="50" relative="1" as="geometry">
            <mxPoint x="330" y="310" as="sourcePoint" />
            <mxPoint x="380" y="260" as="targetPoint" />
          </mxGeometry>
        </mxCell>
        <mxCell id="uLl7qdjxzRNiDO4C2RXD-3" value="" style="endArrow=none;html=1;exitX=1;exitY=0.5;exitDx=0;exitDy=0;" edge="1" parent="1" source="uLl7qdjxzRNiDO4C2RXD-1">
          <mxGeometry width="50" height="50" relative="1" as="geometry">
            <mxPoint x="330" y="310" as="sourcePoint" />
            <mxPoint x="105" y="175" as="targetPoint" />
          </mxGeometry>
        </mxCell>
        <mxCell id="uLl7qdjxzRNiDO4C2RXD-4" value="0" style="text;html=1;strokeColor=none;fillColor=none;align=center;verticalAlign=middle;whiteSpace=wrap;rounded=0;" vertex="1" parent="1">
          <mxGeometry x="100" y="150" width="40" height="20" as="geometry" />
        </mxCell>
        <mxCell id="uLl7qdjxzRNiDO4C2RXD-5" value="0" style="text;html=1;strokeColor=none;fillColor=none;align=center;verticalAlign=middle;whiteSpace=wrap;rounded=0;" vertex="1" parent="1">
          <mxGeometry x="100" y="180" width="40" height="20" as="geometry" />
        </mxCell>
        <mxCell id="uLl7qdjxzRNiDO4C2RXD-6" value="1" style="text;html=1;strokeColor=none;fillColor=none;align=center;verticalAlign=middle;whiteSpace=wrap;rounded=0;" vertex="1" parent="1">
          <mxGeometry x="70" y="165" width="40" height="20" as="geometry" />
        </mxCell>
        <mxCell id="uLl7qdjxzRNiDO4C2RXD-39" style="edgeStyle=orthogonalEdgeStyle;rounded=0;orthogonalLoop=1;jettySize=auto;html=1;exitX=1;exitY=0.5;exitDx=0;exitDy=0;entryX=0;entryY=0.5;entryDx=0;entryDy=0;" edge="1" parent="1" source="uLl7qdjxzRNiDO4C2RXD-7" target="uLl7qdjxzRNiDO4C2RXD-18">
          <mxGeometry relative="1" as="geometry" />
        </mxCell>
        <mxCell id="uLl7qdjxzRNiDO4C2RXD-7" value="" style="ellipse;whiteSpace=wrap;html=1;aspect=fixed;" vertex="1" parent="1">
          <mxGeometry x="220" y="140" width="70" height="70" as="geometry" />
        </mxCell>
        <mxCell id="uLl7qdjxzRNiDO4C2RXD-8" value="" style="endArrow=none;html=1;entryX=0.5;entryY=0;entryDx=0;entryDy=0;exitX=0.5;exitY=1;exitDx=0;exitDy=0;" edge="1" parent="1" source="uLl7qdjxzRNiDO4C2RXD-7" target="uLl7qdjxzRNiDO4C2RXD-7">
          <mxGeometry width="50" height="50" relative="1" as="geometry">
            <mxPoint x="480" y="310" as="sourcePoint" />
            <mxPoint x="530" y="260" as="targetPoint" />
          </mxGeometry>
        </mxCell>
        <mxCell id="uLl7qdjxzRNiDO4C2RXD-9" value="" style="endArrow=none;html=1;exitX=1;exitY=0.5;exitDx=0;exitDy=0;" edge="1" parent="1" source="uLl7qdjxzRNiDO4C2RXD-7">
          <mxGeometry width="50" height="50" relative="1" as="geometry">
            <mxPoint x="480" y="310" as="sourcePoint" />
            <mxPoint x="255" y="175" as="targetPoint" />
          </mxGeometry>
        </mxCell>
        <mxCell id="uLl7qdjxzRNiDO4C2RXD-10" value="2" style="text;html=1;strokeColor=none;fillColor=none;align=center;verticalAlign=middle;whiteSpace=wrap;rounded=0;" vertex="1" parent="1">
          <mxGeometry x="250" y="150" width="40" height="20" as="geometry" />
        </mxCell>
        <mxCell id="uLl7qdjxzRNiDO4C2RXD-11" value="2" style="text;html=1;strokeColor=none;fillColor=none;align=center;verticalAlign=middle;whiteSpace=wrap;rounded=0;" vertex="1" parent="1">
          <mxGeometry x="250" y="180" width="40" height="20" as="geometry" />
        </mxCell>
        <mxCell id="uLl7qdjxzRNiDO4C2RXD-12" value="2" style="text;html=1;strokeColor=none;fillColor=none;align=center;verticalAlign=middle;whiteSpace=wrap;rounded=0;" vertex="1" parent="1">
          <mxGeometry x="220" y="165" width="40" height="20" as="geometry" />
        </mxCell>
        <mxCell id="uLl7qdjxzRNiDO4C2RXD-47" style="edgeStyle=orthogonalEdgeStyle;rounded=0;orthogonalLoop=1;jettySize=auto;html=1;exitX=1;exitY=0.5;exitDx=0;exitDy=0;entryX=0;entryY=0.5;entryDx=0;entryDy=0;" edge="1" parent="1" source="uLl7qdjxzRNiDO4C2RXD-13" target="uLl7qdjxzRNiDO4C2RXD-46">
          <mxGeometry relative="1" as="geometry" />
        </mxCell>
        <mxCell id="uLl7qdjxzRNiDO4C2RXD-61" style="edgeStyle=orthogonalEdgeStyle;rounded=0;orthogonalLoop=1;jettySize=auto;html=1;exitX=0.5;exitY=1;exitDx=0;exitDy=0;entryX=0;entryY=0.5;entryDx=0;entryDy=0;" edge="1" parent="1" source="uLl7qdjxzRNiDO4C2RXD-41" target="uLl7qdjxzRNiDO4C2RXD-54">
          <mxGeometry relative="1" as="geometry" />
        </mxCell>
        <mxCell id="uLl7qdjxzRNiDO4C2RXD-62" style="edgeStyle=orthogonalEdgeStyle;rounded=0;orthogonalLoop=1;jettySize=auto;html=1;exitX=0;exitY=1;exitDx=0;exitDy=0;entryX=0;entryY=0.5;entryDx=0;entryDy=0;" edge="1" parent="1" source="uLl7qdjxzRNiDO4C2RXD-41" target="uLl7qdjxzRNiDO4C2RXD-55">
          <mxGeometry relative="1" as="geometry">
            <Array as="points">
              <mxPoint x="530" y="200" />
              <mxPoint x="530" y="605" />
            </Array>
          </mxGeometry>
        </mxCell>
        <mxCell id="uLl7qdjxzRNiDO4C2RXD-13" value="" style="ellipse;whiteSpace=wrap;html=1;aspect=fixed;" vertex="1" parent="1">
          <mxGeometry x="379" y="140" width="70" height="70" as="geometry" />
        </mxCell>
        <mxCell id="uLl7qdjxzRNiDO4C2RXD-14" value="" style="endArrow=none;html=1;entryX=0.5;entryY=0;entryDx=0;entryDy=0;exitX=0.5;exitY=1;exitDx=0;exitDy=0;" edge="1" parent="1" source="uLl7qdjxzRNiDO4C2RXD-13" target="uLl7qdjxzRNiDO4C2RXD-13">
          <mxGeometry width="50" height="50" relative="1" as="geometry">
            <mxPoint x="639" y="310" as="sourcePoint" />
            <mxPoint x="689" y="260" as="targetPoint" />
          </mxGeometry>
        </mxCell>
        <mxCell id="uLl7qdjxzRNiDO4C2RXD-15" value="" style="endArrow=none;html=1;exitX=1;exitY=0.5;exitDx=0;exitDy=0;" edge="1" parent="1" source="uLl7qdjxzRNiDO4C2RXD-13">
          <mxGeometry width="50" height="50" relative="1" as="geometry">
            <mxPoint x="639" y="310" as="sourcePoint" />
            <mxPoint x="414" y="175" as="targetPoint" />
          </mxGeometry>
        </mxCell>
        <mxCell id="uLl7qdjxzRNiDO4C2RXD-16" value="6" style="text;html=1;strokeColor=none;fillColor=none;align=center;verticalAlign=middle;whiteSpace=wrap;rounded=0;" vertex="1" parent="1">
          <mxGeometry x="409" y="150" width="40" height="20" as="geometry" />
        </mxCell>
        <mxCell id="uLl7qdjxzRNiDO4C2RXD-17" value="6" style="text;html=1;strokeColor=none;fillColor=none;align=center;verticalAlign=middle;whiteSpace=wrap;rounded=0;" vertex="1" parent="1">
          <mxGeometry x="409" y="180" width="40" height="20" as="geometry" />
        </mxCell>
        <mxCell id="uLl7qdjxzRNiDO4C2RXD-18" value="3" style="text;html=1;strokeColor=none;fillColor=none;align=center;verticalAlign=middle;whiteSpace=wrap;rounded=0;" vertex="1" parent="1">
          <mxGeometry x="379" y="165" width="40" height="20" as="geometry" />
        </mxCell>
        <mxCell id="uLl7qdjxzRNiDO4C2RXD-19" value="" style="ellipse;whiteSpace=wrap;html=1;aspect=fixed;" vertex="1" parent="1">
          <mxGeometry x="150" y="860" width="70" height="70" as="geometry" />
        </mxCell>
        <mxCell id="uLl7qdjxzRNiDO4C2RXD-20" value="" style="endArrow=none;html=1;entryX=0.5;entryY=0;entryDx=0;entryDy=0;exitX=0.5;exitY=1;exitDx=0;exitDy=0;" edge="1" parent="1" source="uLl7qdjxzRNiDO4C2RXD-19" target="uLl7qdjxzRNiDO4C2RXD-19">
          <mxGeometry width="50" height="50" relative="1" as="geometry">
            <mxPoint x="410" y="1030" as="sourcePoint" />
            <mxPoint x="460" y="980" as="targetPoint" />
          </mxGeometry>
        </mxCell>
        <mxCell id="uLl7qdjxzRNiDO4C2RXD-21" value="" style="endArrow=none;html=1;exitX=1;exitY=0.5;exitDx=0;exitDy=0;" edge="1" parent="1" source="uLl7qdjxzRNiDO4C2RXD-19">
          <mxGeometry width="50" height="50" relative="1" as="geometry">
            <mxPoint x="410" y="1030" as="sourcePoint" />
            <mxPoint x="185" y="895" as="targetPoint" />
          </mxGeometry>
        </mxCell>
        <mxCell id="uLl7qdjxzRNiDO4C2RXD-22" value="0" style="text;html=1;strokeColor=none;fillColor=none;align=center;verticalAlign=middle;whiteSpace=wrap;rounded=0;" vertex="1" parent="1">
          <mxGeometry x="180" y="870" width="40" height="20" as="geometry" />
        </mxCell>
        <mxCell id="uLl7qdjxzRNiDO4C2RXD-23" value="0" style="text;html=1;strokeColor=none;fillColor=none;align=center;verticalAlign=middle;whiteSpace=wrap;rounded=0;" vertex="1" parent="1">
          <mxGeometry x="180" y="900" width="40" height="20" as="geometry" />
        </mxCell>
        <mxCell id="uLl7qdjxzRNiDO4C2RXD-24" value="1" style="text;html=1;strokeColor=none;fillColor=none;align=center;verticalAlign=middle;whiteSpace=wrap;rounded=0;" vertex="1" parent="1">
          <mxGeometry x="150" y="885" width="40" height="20" as="geometry" />
        </mxCell>
        <mxCell id="uLl7qdjxzRNiDO4C2RXD-25" value="" style="ellipse;whiteSpace=wrap;html=1;aspect=fixed;" vertex="1" parent="1">
          <mxGeometry x="300" y="860" width="70" height="70" as="geometry" />
        </mxCell>
        <mxCell id="uLl7qdjxzRNiDO4C2RXD-26" value="" style="endArrow=none;html=1;entryX=0.5;entryY=0;entryDx=0;entryDy=0;exitX=0.5;exitY=1;exitDx=0;exitDy=0;" edge="1" parent="1" source="uLl7qdjxzRNiDO4C2RXD-25" target="uLl7qdjxzRNiDO4C2RXD-25">
          <mxGeometry width="50" height="50" relative="1" as="geometry">
            <mxPoint x="560" y="1030" as="sourcePoint" />
            <mxPoint x="610" y="980" as="targetPoint" />
          </mxGeometry>
        </mxCell>
        <mxCell id="uLl7qdjxzRNiDO4C2RXD-27" value="" style="endArrow=none;html=1;exitX=1;exitY=0.5;exitDx=0;exitDy=0;" edge="1" parent="1" source="uLl7qdjxzRNiDO4C2RXD-25">
          <mxGeometry width="50" height="50" relative="1" as="geometry">
            <mxPoint x="560" y="1030" as="sourcePoint" />
            <mxPoint x="335" y="895" as="targetPoint" />
          </mxGeometry>
        </mxCell>
        <mxCell id="uLl7qdjxzRNiDO4C2RXD-28" value="0" style="text;html=1;strokeColor=none;fillColor=none;align=center;verticalAlign=middle;whiteSpace=wrap;rounded=0;" vertex="1" parent="1">
          <mxGeometry x="330" y="870" width="40" height="20" as="geometry" />
        </mxCell>
        <mxCell id="uLl7qdjxzRNiDO4C2RXD-29" value="0" style="text;html=1;strokeColor=none;fillColor=none;align=center;verticalAlign=middle;whiteSpace=wrap;rounded=0;" vertex="1" parent="1">
          <mxGeometry x="330" y="900" width="40" height="20" as="geometry" />
        </mxCell>
        <mxCell id="uLl7qdjxzRNiDO4C2RXD-30" value="1" style="text;html=1;strokeColor=none;fillColor=none;align=center;verticalAlign=middle;whiteSpace=wrap;rounded=0;" vertex="1" parent="1">
          <mxGeometry x="300" y="885" width="40" height="20" as="geometry" />
        </mxCell>
        <mxCell id="uLl7qdjxzRNiDO4C2RXD-31" value="" style="ellipse;whiteSpace=wrap;html=1;aspect=fixed;" vertex="1" parent="1">
          <mxGeometry x="459" y="860" width="70" height="70" as="geometry" />
        </mxCell>
        <mxCell id="uLl7qdjxzRNiDO4C2RXD-32" value="" style="endArrow=none;html=1;entryX=0.5;entryY=0;entryDx=0;entryDy=0;exitX=0.5;exitY=1;exitDx=0;exitDy=0;" edge="1" parent="1" source="uLl7qdjxzRNiDO4C2RXD-31" target="uLl7qdjxzRNiDO4C2RXD-31">
          <mxGeometry width="50" height="50" relative="1" as="geometry">
            <mxPoint x="719" y="1030" as="sourcePoint" />
            <mxPoint x="769" y="980" as="targetPoint" />
          </mxGeometry>
        </mxCell>
        <mxCell id="uLl7qdjxzRNiDO4C2RXD-33" value="" style="endArrow=none;html=1;exitX=1;exitY=0.5;exitDx=0;exitDy=0;" edge="1" parent="1" source="uLl7qdjxzRNiDO4C2RXD-31">
          <mxGeometry width="50" height="50" relative="1" as="geometry">
            <mxPoint x="719" y="1030" as="sourcePoint" />
            <mxPoint x="494" y="895" as="targetPoint" />
          </mxGeometry>
        </mxCell>
        <mxCell id="uLl7qdjxzRNiDO4C2RXD-34" value="0" style="text;html=1;strokeColor=none;fillColor=none;align=center;verticalAlign=middle;whiteSpace=wrap;rounded=0;" vertex="1" parent="1">
          <mxGeometry x="489" y="870" width="40" height="20" as="geometry" />
        </mxCell>
        <mxCell id="uLl7qdjxzRNiDO4C2RXD-35" value="0" style="text;html=1;strokeColor=none;fillColor=none;align=center;verticalAlign=middle;whiteSpace=wrap;rounded=0;" vertex="1" parent="1">
          <mxGeometry x="489" y="900" width="40" height="20" as="geometry" />
        </mxCell>
        <mxCell id="uLl7qdjxzRNiDO4C2RXD-36" value="1" style="text;html=1;strokeColor=none;fillColor=none;align=center;verticalAlign=middle;whiteSpace=wrap;rounded=0;" vertex="1" parent="1">
          <mxGeometry x="459" y="885" width="40" height="20" as="geometry" />
        </mxCell>
        <mxCell id="uLl7qdjxzRNiDO4C2RXD-38" value="A(2)" style="text;html=1;align=center;verticalAlign=middle;resizable=0;points=[];autosize=1;strokeColor=none;fillColor=none;" vertex="1" parent="1">
          <mxGeometry x="150" y="150" width="40" height="20" as="geometry" />
        </mxCell>
        <mxCell id="uLl7qdjxzRNiDO4C2RXD-40" value="B(4)" style="text;html=1;align=center;verticalAlign=middle;resizable=0;points=[];autosize=1;strokeColor=none;fillColor=none;" vertex="1" parent="1">
          <mxGeometry x="310" y="150" width="40" height="20" as="geometry" />
        </mxCell>
        <mxCell id="uLl7qdjxzRNiDO4C2RXD-41" value="" style="ellipse;whiteSpace=wrap;html=1;aspect=fixed;" vertex="1" parent="1">
          <mxGeometry x="540" y="140" width="70" height="70" as="geometry" />
        </mxCell>
        <mxCell id="uLl7qdjxzRNiDO4C2RXD-42" value="" style="endArrow=none;html=1;entryX=0.5;entryY=0;entryDx=0;entryDy=0;exitX=0.5;exitY=1;exitDx=0;exitDy=0;" edge="1" parent="1" source="uLl7qdjxzRNiDO4C2RXD-41" target="uLl7qdjxzRNiDO4C2RXD-41">
          <mxGeometry width="50" height="50" relative="1" as="geometry">
            <mxPoint x="800" y="310" as="sourcePoint" />
            <mxPoint x="850" y="260" as="targetPoint" />
          </mxGeometry>
        </mxCell>
        <mxCell id="uLl7qdjxzRNiDO4C2RXD-43" value="" style="endArrow=none;html=1;exitX=1;exitY=0.5;exitDx=0;exitDy=0;" edge="1" parent="1" source="uLl7qdjxzRNiDO4C2RXD-41">
          <mxGeometry width="50" height="50" relative="1" as="geometry">
            <mxPoint x="800" y="310" as="sourcePoint" />
            <mxPoint x="575" y="175" as="targetPoint" />
          </mxGeometry>
        </mxCell>
        <mxCell id="uLl7qdjxzRNiDO4C2RXD-44" value="8" style="text;html=1;strokeColor=none;fillColor=none;align=center;verticalAlign=middle;whiteSpace=wrap;rounded=0;" vertex="1" parent="1">
          <mxGeometry x="570" y="150" width="40" height="20" as="geometry" />
        </mxCell>
        <mxCell id="uLl7qdjxzRNiDO4C2RXD-45" value="8" style="text;html=1;strokeColor=none;fillColor=none;align=center;verticalAlign=middle;whiteSpace=wrap;rounded=0;" vertex="1" parent="1">
          <mxGeometry x="570" y="180" width="40" height="20" as="geometry" />
        </mxCell>
        <mxCell id="uLl7qdjxzRNiDO4C2RXD-46" value="3" style="text;html=1;strokeColor=none;fillColor=none;align=center;verticalAlign=middle;whiteSpace=wrap;rounded=0;" vertex="1" parent="1">
          <mxGeometry x="540" y="165" width="40" height="20" as="geometry" />
        </mxCell>
        <mxCell id="uLl7qdjxzRNiDO4C2RXD-48" value="C(2)" style="text;html=1;align=center;verticalAlign=middle;resizable=0;points=[];autosize=1;strokeColor=none;fillColor=none;" vertex="1" parent="1">
          <mxGeometry x="469" y="150" width="40" height="20" as="geometry" />
        </mxCell>
        <mxCell id="uLl7qdjxzRNiDO4C2RXD-77" style="edgeStyle=orthogonalEdgeStyle;rounded=0;orthogonalLoop=1;jettySize=auto;html=1;exitX=1;exitY=0.5;exitDx=0;exitDy=0;entryX=0;entryY=0.5;entryDx=0;entryDy=0;" edge="1" parent="1" source="uLl7qdjxzRNiDO4C2RXD-49" target="uLl7qdjxzRNiDO4C2RXD-70">
          <mxGeometry relative="1" as="geometry" />
        </mxCell>
        <mxCell id="uLl7qdjxzRNiDO4C2RXD-49" value="" style="ellipse;whiteSpace=wrap;html=1;aspect=fixed;" vertex="1" parent="1">
          <mxGeometry x="690" y="260" width="70" height="70" as="geometry" />
        </mxCell>
        <mxCell id="uLl7qdjxzRNiDO4C2RXD-50" value="" style="endArrow=none;html=1;entryX=0.5;entryY=0;entryDx=0;entryDy=0;exitX=0.5;exitY=1;exitDx=0;exitDy=0;" edge="1" parent="1" source="uLl7qdjxzRNiDO4C2RXD-49" target="uLl7qdjxzRNiDO4C2RXD-49">
          <mxGeometry width="50" height="50" relative="1" as="geometry">
            <mxPoint x="950" y="430" as="sourcePoint" />
            <mxPoint x="1000" y="380" as="targetPoint" />
          </mxGeometry>
        </mxCell>
        <mxCell id="uLl7qdjxzRNiDO4C2RXD-51" value="" style="endArrow=none;html=1;exitX=1;exitY=0.5;exitDx=0;exitDy=0;" edge="1" parent="1" source="uLl7qdjxzRNiDO4C2RXD-49">
          <mxGeometry width="50" height="50" relative="1" as="geometry">
            <mxPoint x="950" y="430" as="sourcePoint" />
            <mxPoint x="725" y="295" as="targetPoint" />
          </mxGeometry>
        </mxCell>
        <mxCell id="uLl7qdjxzRNiDO4C2RXD-52" value="12" style="text;html=1;strokeColor=none;fillColor=none;align=center;verticalAlign=middle;whiteSpace=wrap;rounded=0;" vertex="1" parent="1">
          <mxGeometry x="720" y="270" width="40" height="20" as="geometry" />
        </mxCell>
        <mxCell id="uLl7qdjxzRNiDO4C2RXD-53" value="12" style="text;html=1;strokeColor=none;fillColor=none;align=center;verticalAlign=middle;whiteSpace=wrap;rounded=0;" vertex="1" parent="1">
          <mxGeometry x="720" y="300" width="40" height="20" as="geometry" />
        </mxCell>
        <mxCell id="uLl7qdjxzRNiDO4C2RXD-54" value="4" style="text;html=1;strokeColor=none;fillColor=none;align=center;verticalAlign=middle;whiteSpace=wrap;rounded=0;" vertex="1" parent="1">
          <mxGeometry x="690" y="285" width="40" height="20" as="geometry" />
        </mxCell>
        <mxCell id="uLl7qdjxzRNiDO4C2RXD-78" style="edgeStyle=orthogonalEdgeStyle;rounded=0;orthogonalLoop=1;jettySize=auto;html=1;exitX=1;exitY=0.5;exitDx=0;exitDy=0;entryX=0;entryY=0.5;entryDx=0;entryDy=0;" edge="1" parent="1" source="uLl7qdjxzRNiDO4C2RXD-55" target="uLl7qdjxzRNiDO4C2RXD-76">
          <mxGeometry relative="1" as="geometry" />
        </mxCell>
        <mxCell id="uLl7qdjxzRNiDO4C2RXD-101" style="edgeStyle=orthogonalEdgeStyle;rounded=0;orthogonalLoop=1;jettySize=auto;html=1;exitX=0.5;exitY=1;exitDx=0;exitDy=0;entryX=0;entryY=0.75;entryDx=0;entryDy=0;" edge="1" parent="1" source="uLl7qdjxzRNiDO4C2RXD-55" target="uLl7qdjxzRNiDO4C2RXD-100">
          <mxGeometry relative="1" as="geometry" />
        </mxCell>
        <mxCell id="uLl7qdjxzRNiDO4C2RXD-55" value="" style="ellipse;whiteSpace=wrap;html=1;aspect=fixed;" vertex="1" parent="1">
          <mxGeometry x="690" y="570" width="70" height="70" as="geometry" />
        </mxCell>
        <mxCell id="uLl7qdjxzRNiDO4C2RXD-56" value="" style="endArrow=none;html=1;entryX=0.5;entryY=0;entryDx=0;entryDy=0;exitX=0.5;exitY=1;exitDx=0;exitDy=0;" edge="1" parent="1" source="uLl7qdjxzRNiDO4C2RXD-55" target="uLl7qdjxzRNiDO4C2RXD-55">
          <mxGeometry width="50" height="50" relative="1" as="geometry">
            <mxPoint x="950" y="740" as="sourcePoint" />
            <mxPoint x="1000" y="690" as="targetPoint" />
          </mxGeometry>
        </mxCell>
        <mxCell id="uLl7qdjxzRNiDO4C2RXD-57" value="" style="endArrow=none;html=1;exitX=1;exitY=0.5;exitDx=0;exitDy=0;" edge="1" parent="1" source="uLl7qdjxzRNiDO4C2RXD-55">
          <mxGeometry width="50" height="50" relative="1" as="geometry">
            <mxPoint x="950" y="740" as="sourcePoint" />
            <mxPoint x="725" y="605" as="targetPoint" />
          </mxGeometry>
        </mxCell>
        <mxCell id="uLl7qdjxzRNiDO4C2RXD-58" value="12" style="text;html=1;strokeColor=none;fillColor=none;align=center;verticalAlign=middle;whiteSpace=wrap;rounded=0;" vertex="1" parent="1">
          <mxGeometry x="720" y="580" width="40" height="20" as="geometry" />
        </mxCell>
        <mxCell id="uLl7qdjxzRNiDO4C2RXD-59" value="12" style="text;html=1;strokeColor=none;fillColor=none;align=center;verticalAlign=middle;whiteSpace=wrap;rounded=0;" vertex="1" parent="1">
          <mxGeometry x="720" y="610" width="40" height="20" as="geometry" />
        </mxCell>
        <mxCell id="uLl7qdjxzRNiDO4C2RXD-60" value="5" style="text;html=1;strokeColor=none;fillColor=none;align=center;verticalAlign=middle;whiteSpace=wrap;rounded=0;" vertex="1" parent="1">
          <mxGeometry x="690" y="595" width="40" height="20" as="geometry" />
        </mxCell>
        <mxCell id="uLl7qdjxzRNiDO4C2RXD-63" value="D(4)" style="text;html=1;align=center;verticalAlign=middle;resizable=0;points=[];autosize=1;strokeColor=none;fillColor=none;rotation=0;" vertex="1" parent="1">
          <mxGeometry x="590" y="270" width="40" height="20" as="geometry" />
        </mxCell>
        <mxCell id="uLl7qdjxzRNiDO4C2RXD-64" value="E(6)" style="text;html=1;align=center;verticalAlign=middle;resizable=0;points=[];autosize=1;strokeColor=none;fillColor=none;" vertex="1" parent="1">
          <mxGeometry x="540" y="575" width="40" height="20" as="geometry" />
        </mxCell>
        <mxCell id="uLl7qdjxzRNiDO4C2RXD-65" value="" style="ellipse;whiteSpace=wrap;html=1;aspect=fixed;" vertex="1" parent="1">
          <mxGeometry x="870" y="260" width="70" height="70" as="geometry" />
        </mxCell>
        <mxCell id="uLl7qdjxzRNiDO4C2RXD-66" value="" style="endArrow=none;html=1;entryX=0.5;entryY=0;entryDx=0;entryDy=0;exitX=0.5;exitY=1;exitDx=0;exitDy=0;" edge="1" parent="1" source="uLl7qdjxzRNiDO4C2RXD-65" target="uLl7qdjxzRNiDO4C2RXD-65">
          <mxGeometry width="50" height="50" relative="1" as="geometry">
            <mxPoint x="1130" y="430" as="sourcePoint" />
            <mxPoint x="1180" y="380" as="targetPoint" />
          </mxGeometry>
        </mxCell>
        <mxCell id="uLl7qdjxzRNiDO4C2RXD-67" value="" style="endArrow=none;html=1;exitX=1;exitY=0.5;exitDx=0;exitDy=0;" edge="1" parent="1" source="uLl7qdjxzRNiDO4C2RXD-65">
          <mxGeometry width="50" height="50" relative="1" as="geometry">
            <mxPoint x="1130" y="430" as="sourcePoint" />
            <mxPoint x="905" y="295" as="targetPoint" />
          </mxGeometry>
        </mxCell>
        <mxCell id="uLl7qdjxzRNiDO4C2RXD-68" value="14" style="text;html=1;strokeColor=none;fillColor=none;align=center;verticalAlign=middle;whiteSpace=wrap;rounded=0;" vertex="1" parent="1">
          <mxGeometry x="900" y="270" width="40" height="20" as="geometry" />
        </mxCell>
        <mxCell id="uLl7qdjxzRNiDO4C2RXD-69" value="23 1/2" style="text;html=1;strokeColor=none;fillColor=none;align=center;verticalAlign=middle;whiteSpace=wrap;rounded=0;" vertex="1" parent="1">
          <mxGeometry x="900" y="300" width="40" height="20" as="geometry" />
        </mxCell>
        <mxCell id="uLl7qdjxzRNiDO4C2RXD-70" value="6" style="text;html=1;strokeColor=none;fillColor=none;align=center;verticalAlign=middle;whiteSpace=wrap;rounded=0;" vertex="1" parent="1">
          <mxGeometry x="870" y="285" width="40" height="20" as="geometry" />
        </mxCell>
        <mxCell id="uLl7qdjxzRNiDO4C2RXD-71" value="" style="ellipse;whiteSpace=wrap;html=1;aspect=fixed;" vertex="1" parent="1">
          <mxGeometry x="870" y="570" width="70" height="70" as="geometry" />
        </mxCell>
        <mxCell id="uLl7qdjxzRNiDO4C2RXD-72" value="" style="endArrow=none;html=1;entryX=0.5;entryY=0;entryDx=0;entryDy=0;exitX=0.5;exitY=1;exitDx=0;exitDy=0;" edge="1" parent="1" source="uLl7qdjxzRNiDO4C2RXD-71" target="uLl7qdjxzRNiDO4C2RXD-71">
          <mxGeometry width="50" height="50" relative="1" as="geometry">
            <mxPoint x="1130" y="740" as="sourcePoint" />
            <mxPoint x="1180" y="690" as="targetPoint" />
          </mxGeometry>
        </mxCell>
        <mxCell id="uLl7qdjxzRNiDO4C2RXD-73" value="" style="endArrow=none;html=1;exitX=1;exitY=0.5;exitDx=0;exitDy=0;" edge="1" parent="1" source="uLl7qdjxzRNiDO4C2RXD-71">
          <mxGeometry width="50" height="50" relative="1" as="geometry">
            <mxPoint x="1130" y="740" as="sourcePoint" />
            <mxPoint x="905" y="605" as="targetPoint" />
          </mxGeometry>
        </mxCell>
        <mxCell id="uLl7qdjxzRNiDO4C2RXD-74" value="12" style="text;html=1;strokeColor=none;fillColor=none;align=center;verticalAlign=middle;whiteSpace=wrap;rounded=0;" vertex="1" parent="1">
          <mxGeometry x="900" y="580" width="40" height="20" as="geometry" />
        </mxCell>
        <mxCell id="uLl7qdjxzRNiDO4C2RXD-75" value="23 1/2" style="text;html=1;strokeColor=none;fillColor=none;align=center;verticalAlign=middle;whiteSpace=wrap;rounded=0;" vertex="1" parent="1">
          <mxGeometry x="910" y="610" width="40" height="20" as="geometry" />
        </mxCell>
        <mxCell id="uLl7qdjxzRNiDO4C2RXD-76" value="7" style="text;html=1;strokeColor=none;fillColor=none;align=center;verticalAlign=middle;whiteSpace=wrap;rounded=0;" vertex="1" parent="1">
          <mxGeometry x="870" y="595" width="40" height="20" as="geometry" />
        </mxCell>
        <mxCell id="uLl7qdjxzRNiDO4C2RXD-79" value="F(2)" style="text;html=1;align=center;verticalAlign=middle;resizable=0;points=[];autosize=1;strokeColor=none;fillColor=none;" vertex="1" parent="1">
          <mxGeometry x="780" y="270" width="40" height="20" as="geometry" />
        </mxCell>
        <mxCell id="uLl7qdjxzRNiDO4C2RXD-80" value="G(2)" style="text;html=1;align=center;verticalAlign=middle;resizable=0;points=[];autosize=1;strokeColor=none;fillColor=none;" vertex="1" parent="1">
          <mxGeometry x="790" y="580" width="40" height="20" as="geometry" />
        </mxCell>
        <mxCell id="uLl7qdjxzRNiDO4C2RXD-81" style="edgeStyle=orthogonalEdgeStyle;rounded=0;orthogonalLoop=1;jettySize=auto;html=1;exitX=0.5;exitY=1;exitDx=0;exitDy=0;entryX=0;entryY=0.5;entryDx=0;entryDy=0;" edge="1" parent="1" source="uLl7qdjxzRNiDO4C2RXD-49" target="uLl7qdjxzRNiDO4C2RXD-93">
          <mxGeometry relative="1" as="geometry">
            <mxPoint x="760" y="425" as="sourcePoint" />
          </mxGeometry>
        </mxCell>
        <mxCell id="uLl7qdjxzRNiDO4C2RXD-109" style="edgeStyle=orthogonalEdgeStyle;rounded=0;orthogonalLoop=1;jettySize=auto;html=1;exitX=1;exitY=0.5;exitDx=0;exitDy=0;entryX=0;entryY=0.5;entryDx=0;entryDy=0;" edge="1" parent="1" source="uLl7qdjxzRNiDO4C2RXD-88" target="uLl7qdjxzRNiDO4C2RXD-108">
          <mxGeometry relative="1" as="geometry" />
        </mxCell>
        <mxCell id="uLl7qdjxzRNiDO4C2RXD-88" value="" style="ellipse;whiteSpace=wrap;html=1;aspect=fixed;" vertex="1" parent="1">
          <mxGeometry x="870" y="390" width="70" height="70" as="geometry" />
        </mxCell>
        <mxCell id="uLl7qdjxzRNiDO4C2RXD-89" value="" style="endArrow=none;html=1;entryX=0.5;entryY=0;entryDx=0;entryDy=0;exitX=0.5;exitY=1;exitDx=0;exitDy=0;" edge="1" parent="1" source="uLl7qdjxzRNiDO4C2RXD-88" target="uLl7qdjxzRNiDO4C2RXD-88">
          <mxGeometry width="50" height="50" relative="1" as="geometry">
            <mxPoint x="1130" y="560" as="sourcePoint" />
            <mxPoint x="1180" y="510" as="targetPoint" />
          </mxGeometry>
        </mxCell>
        <mxCell id="uLl7qdjxzRNiDO4C2RXD-90" value="" style="endArrow=none;html=1;exitX=1;exitY=0.5;exitDx=0;exitDy=0;" edge="1" parent="1" source="uLl7qdjxzRNiDO4C2RXD-88">
          <mxGeometry width="50" height="50" relative="1" as="geometry">
            <mxPoint x="1130" y="560" as="sourcePoint" />
            <mxPoint x="905" y="425" as="targetPoint" />
          </mxGeometry>
        </mxCell>
        <mxCell id="uLl7qdjxzRNiDO4C2RXD-91" value="14" style="text;html=1;strokeColor=none;fillColor=none;align=center;verticalAlign=middle;whiteSpace=wrap;rounded=0;" vertex="1" parent="1">
          <mxGeometry x="900" y="400" width="40" height="20" as="geometry" />
        </mxCell>
        <mxCell id="uLl7qdjxzRNiDO4C2RXD-92" value="14" style="text;html=1;strokeColor=none;fillColor=none;align=center;verticalAlign=middle;whiteSpace=wrap;rounded=0;" vertex="1" parent="1">
          <mxGeometry x="900" y="430" width="40" height="20" as="geometry" />
        </mxCell>
        <mxCell id="uLl7qdjxzRNiDO4C2RXD-93" value="8" style="text;html=1;strokeColor=none;fillColor=none;align=center;verticalAlign=middle;whiteSpace=wrap;rounded=0;" vertex="1" parent="1">
          <mxGeometry x="870" y="415" width="40" height="20" as="geometry" />
        </mxCell>
        <mxCell id="uLl7qdjxzRNiDO4C2RXD-94" value="H(2)" style="text;html=1;align=center;verticalAlign=middle;resizable=0;points=[];autosize=1;strokeColor=none;fillColor=none;" vertex="1" parent="1">
          <mxGeometry x="780" y="400" width="40" height="20" as="geometry" />
        </mxCell>
        <mxCell id="uLl7qdjxzRNiDO4C2RXD-118" style="edgeStyle=orthogonalEdgeStyle;rounded=0;orthogonalLoop=1;jettySize=auto;html=1;exitX=1;exitY=0.5;exitDx=0;exitDy=0;entryX=0;entryY=0.5;entryDx=0;entryDy=0;" edge="1" parent="1" source="uLl7qdjxzRNiDO4C2RXD-95" target="uLl7qdjxzRNiDO4C2RXD-117">
          <mxGeometry relative="1" as="geometry" />
        </mxCell>
        <mxCell id="uLl7qdjxzRNiDO4C2RXD-95" value="" style="ellipse;whiteSpace=wrap;html=1;aspect=fixed;" vertex="1" parent="1">
          <mxGeometry x="870" y="680" width="70" height="70" as="geometry" />
        </mxCell>
        <mxCell id="uLl7qdjxzRNiDO4C2RXD-96" value="" style="endArrow=none;html=1;entryX=0.5;entryY=0;entryDx=0;entryDy=0;exitX=0.5;exitY=1;exitDx=0;exitDy=0;" edge="1" parent="1" source="uLl7qdjxzRNiDO4C2RXD-95" target="uLl7qdjxzRNiDO4C2RXD-95">
          <mxGeometry width="50" height="50" relative="1" as="geometry">
            <mxPoint x="1130" y="850" as="sourcePoint" />
            <mxPoint x="1180" y="800" as="targetPoint" />
          </mxGeometry>
        </mxCell>
        <mxCell id="uLl7qdjxzRNiDO4C2RXD-97" value="" style="endArrow=none;html=1;exitX=1;exitY=0.5;exitDx=0;exitDy=0;" edge="1" parent="1" source="uLl7qdjxzRNiDO4C2RXD-95">
          <mxGeometry width="50" height="50" relative="1" as="geometry">
            <mxPoint x="1130" y="850" as="sourcePoint" />
            <mxPoint x="905" y="715" as="targetPoint" />
          </mxGeometry>
        </mxCell>
        <mxCell id="uLl7qdjxzRNiDO4C2RXD-98" value="12" style="text;html=1;strokeColor=none;fillColor=none;align=center;verticalAlign=middle;whiteSpace=wrap;rounded=0;" vertex="1" parent="1">
          <mxGeometry x="900" y="690" width="40" height="20" as="geometry" />
        </mxCell>
        <mxCell id="uLl7qdjxzRNiDO4C2RXD-99" value="12" style="text;html=1;strokeColor=none;fillColor=none;align=center;verticalAlign=middle;whiteSpace=wrap;rounded=0;" vertex="1" parent="1">
          <mxGeometry x="900" y="720" width="40" height="20" as="geometry" />
        </mxCell>
        <mxCell id="uLl7qdjxzRNiDO4C2RXD-100" value="9" style="text;html=1;strokeColor=none;fillColor=none;align=center;verticalAlign=middle;whiteSpace=wrap;rounded=0;" vertex="1" parent="1">
          <mxGeometry x="870" y="705" width="40" height="20" as="geometry" />
        </mxCell>
        <mxCell id="uLl7qdjxzRNiDO4C2RXD-102" value="I(1)" style="text;html=1;align=center;verticalAlign=middle;resizable=0;points=[];autosize=1;strokeColor=none;fillColor=none;" vertex="1" parent="1">
          <mxGeometry x="760" y="700" width="30" height="20" as="geometry" />
        </mxCell>
        <mxCell id="uLl7qdjxzRNiDO4C2RXD-127" style="edgeStyle=orthogonalEdgeStyle;rounded=0;orthogonalLoop=1;jettySize=auto;html=1;exitX=1;exitY=0.5;exitDx=0;exitDy=0;entryX=0;entryY=0.5;entryDx=0;entryDy=0;" edge="1" parent="1" source="uLl7qdjxzRNiDO4C2RXD-103" target="uLl7qdjxzRNiDO4C2RXD-126">
          <mxGeometry relative="1" as="geometry" />
        </mxCell>
        <mxCell id="uLl7qdjxzRNiDO4C2RXD-103" value="" style="ellipse;whiteSpace=wrap;html=1;aspect=fixed;" vertex="1" parent="1">
          <mxGeometry x="1020" y="390" width="70" height="70" as="geometry" />
        </mxCell>
        <mxCell id="uLl7qdjxzRNiDO4C2RXD-104" value="" style="endArrow=none;html=1;entryX=0.5;entryY=0;entryDx=0;entryDy=0;exitX=0.5;exitY=1;exitDx=0;exitDy=0;" edge="1" parent="1" source="uLl7qdjxzRNiDO4C2RXD-103" target="uLl7qdjxzRNiDO4C2RXD-103">
          <mxGeometry width="50" height="50" relative="1" as="geometry">
            <mxPoint x="1280" y="560" as="sourcePoint" />
            <mxPoint x="1330" y="510" as="targetPoint" />
          </mxGeometry>
        </mxCell>
        <mxCell id="uLl7qdjxzRNiDO4C2RXD-105" value="" style="endArrow=none;html=1;exitX=1;exitY=0.5;exitDx=0;exitDy=0;" edge="1" parent="1" source="uLl7qdjxzRNiDO4C2RXD-103">
          <mxGeometry width="50" height="50" relative="1" as="geometry">
            <mxPoint x="1280" y="560" as="sourcePoint" />
            <mxPoint x="1055" y="425" as="targetPoint" />
          </mxGeometry>
        </mxCell>
        <mxCell id="uLl7qdjxzRNiDO4C2RXD-106" value="14 1/2" style="text;html=1;strokeColor=none;fillColor=none;align=center;verticalAlign=middle;whiteSpace=wrap;rounded=0;" vertex="1" parent="1">
          <mxGeometry x="1060" y="400" width="40" height="20" as="geometry" />
        </mxCell>
        <mxCell id="uLl7qdjxzRNiDO4C2RXD-107" value="14 1/2" style="text;html=1;strokeColor=none;fillColor=none;align=center;verticalAlign=middle;whiteSpace=wrap;rounded=0;" vertex="1" parent="1">
          <mxGeometry x="1060" y="430" width="40" height="20" as="geometry" />
        </mxCell>
        <mxCell id="uLl7qdjxzRNiDO4C2RXD-108" value="10" style="text;html=1;strokeColor=none;fillColor=none;align=center;verticalAlign=middle;whiteSpace=wrap;rounded=0;" vertex="1" parent="1">
          <mxGeometry x="1020" y="415" width="40" height="20" as="geometry" />
        </mxCell>
        <mxCell id="uLl7qdjxzRNiDO4C2RXD-110" value="J(1/2)" style="text;html=1;align=center;verticalAlign=middle;resizable=0;points=[];autosize=1;strokeColor=none;fillColor=none;" vertex="1" parent="1">
          <mxGeometry x="950" y="400" width="50" height="20" as="geometry" />
        </mxCell>
        <mxCell id="uLl7qdjxzRNiDO4C2RXD-112" value="" style="ellipse;whiteSpace=wrap;html=1;aspect=fixed;" vertex="1" parent="1">
          <mxGeometry x="1020" y="680" width="70" height="70" as="geometry" />
        </mxCell>
        <mxCell id="uLl7qdjxzRNiDO4C2RXD-113" value="" style="endArrow=none;html=1;entryX=0.5;entryY=0;entryDx=0;entryDy=0;exitX=0.5;exitY=1;exitDx=0;exitDy=0;" edge="1" parent="1" source="uLl7qdjxzRNiDO4C2RXD-112" target="uLl7qdjxzRNiDO4C2RXD-112">
          <mxGeometry width="50" height="50" relative="1" as="geometry">
            <mxPoint x="1280" y="850" as="sourcePoint" />
            <mxPoint x="1330" y="800" as="targetPoint" />
          </mxGeometry>
        </mxCell>
        <mxCell id="uLl7qdjxzRNiDO4C2RXD-114" value="" style="endArrow=none;html=1;exitX=1;exitY=0.5;exitDx=0;exitDy=0;" edge="1" parent="1" source="uLl7qdjxzRNiDO4C2RXD-112">
          <mxGeometry width="50" height="50" relative="1" as="geometry">
            <mxPoint x="1280" y="850" as="sourcePoint" />
            <mxPoint x="1055" y="715" as="targetPoint" />
          </mxGeometry>
        </mxCell>
        <mxCell id="uLl7qdjxzRNiDO4C2RXD-115" value="14&amp;nbsp;" style="text;html=1;strokeColor=none;fillColor=none;align=center;verticalAlign=middle;whiteSpace=wrap;rounded=0;" vertex="1" parent="1">
          <mxGeometry x="1050" y="690" width="40" height="20" as="geometry" />
        </mxCell>
        <mxCell id="uLl7qdjxzRNiDO4C2RXD-116" value="14 1/2" style="text;html=1;strokeColor=none;fillColor=none;align=center;verticalAlign=middle;whiteSpace=wrap;rounded=0;" vertex="1" parent="1">
          <mxGeometry x="1050" y="720" width="40" height="20" as="geometry" />
        </mxCell>
        <mxCell id="uLl7qdjxzRNiDO4C2RXD-117" value="11" style="text;html=1;strokeColor=none;fillColor=none;align=center;verticalAlign=middle;whiteSpace=wrap;rounded=0;" vertex="1" parent="1">
          <mxGeometry x="1020" y="705" width="40" height="20" as="geometry" />
        </mxCell>
        <mxCell id="uLl7qdjxzRNiDO4C2RXD-119" value="K(2)" style="text;html=1;align=center;verticalAlign=middle;resizable=0;points=[];autosize=1;strokeColor=none;fillColor=none;" vertex="1" parent="1">
          <mxGeometry x="960" y="690" width="40" height="20" as="geometry" />
        </mxCell>
        <mxCell id="uLl7qdjxzRNiDO4C2RXD-120" value="" style="html=1;labelBackgroundColor=#ffffff;startArrow=none;startFill=0;startSize=6;endArrow=classic;endFill=1;endSize=6;jettySize=auto;orthogonalLoop=1;strokeWidth=1;dashed=1;fontSize=14;entryX=0.5;entryY=1;entryDx=0;entryDy=0;exitX=0.5;exitY=0;exitDx=0;exitDy=0;" edge="1" parent="1" source="uLl7qdjxzRNiDO4C2RXD-112" target="uLl7qdjxzRNiDO4C2RXD-103">
          <mxGeometry width="60" height="60" relative="1" as="geometry">
            <mxPoint x="900" y="590" as="sourcePoint" />
            <mxPoint x="960" y="530" as="targetPoint" />
          </mxGeometry>
        </mxCell>
        <mxCell id="uLl7qdjxzRNiDO4C2RXD-135" style="edgeStyle=orthogonalEdgeStyle;rounded=0;orthogonalLoop=1;jettySize=auto;html=1;exitX=1;exitY=0.5;exitDx=0;exitDy=0;" edge="1" parent="1" source="uLl7qdjxzRNiDO4C2RXD-121" target="uLl7qdjxzRNiDO4C2RXD-134">
          <mxGeometry relative="1" as="geometry" />
        </mxCell>
        <mxCell id="uLl7qdjxzRNiDO4C2RXD-121" value="" style="ellipse;whiteSpace=wrap;html=1;aspect=fixed;" vertex="1" parent="1">
          <mxGeometry x="1190" y="390" width="70" height="70" as="geometry" />
        </mxCell>
        <mxCell id="uLl7qdjxzRNiDO4C2RXD-122" value="" style="endArrow=none;html=1;entryX=0.5;entryY=0;entryDx=0;entryDy=0;exitX=0.5;exitY=1;exitDx=0;exitDy=0;" edge="1" parent="1" source="uLl7qdjxzRNiDO4C2RXD-121" target="uLl7qdjxzRNiDO4C2RXD-121">
          <mxGeometry width="50" height="50" relative="1" as="geometry">
            <mxPoint x="1450" y="560" as="sourcePoint" />
            <mxPoint x="1500" y="510" as="targetPoint" />
          </mxGeometry>
        </mxCell>
        <mxCell id="uLl7qdjxzRNiDO4C2RXD-123" value="" style="endArrow=none;html=1;exitX=1;exitY=0.5;exitDx=0;exitDy=0;" edge="1" parent="1" source="uLl7qdjxzRNiDO4C2RXD-121">
          <mxGeometry width="50" height="50" relative="1" as="geometry">
            <mxPoint x="1450" y="560" as="sourcePoint" />
            <mxPoint x="1225" y="425" as="targetPoint" />
          </mxGeometry>
        </mxCell>
        <mxCell id="uLl7qdjxzRNiDO4C2RXD-124" value="19 1/2" style="text;html=1;strokeColor=none;fillColor=none;align=center;verticalAlign=middle;whiteSpace=wrap;rounded=0;" vertex="1" parent="1">
          <mxGeometry x="1230" y="400" width="40" height="20" as="geometry" />
        </mxCell>
        <mxCell id="uLl7qdjxzRNiDO4C2RXD-125" value="19 1/2" style="text;html=1;strokeColor=none;fillColor=none;align=center;verticalAlign=middle;whiteSpace=wrap;rounded=0;" vertex="1" parent="1">
          <mxGeometry x="1230" y="430" width="40" height="20" as="geometry" />
        </mxCell>
        <mxCell id="uLl7qdjxzRNiDO4C2RXD-126" value="12" style="text;html=1;strokeColor=none;fillColor=none;align=center;verticalAlign=middle;whiteSpace=wrap;rounded=0;" vertex="1" parent="1">
          <mxGeometry x="1190" y="415" width="40" height="20" as="geometry" />
        </mxCell>
        <mxCell id="uLl7qdjxzRNiDO4C2RXD-128" value="L(5)" style="text;html=1;align=center;verticalAlign=middle;resizable=0;points=[];autosize=1;strokeColor=none;fillColor=none;" vertex="1" parent="1">
          <mxGeometry x="1120" y="400" width="40" height="20" as="geometry" />
        </mxCell>
        <mxCell id="uLl7qdjxzRNiDO4C2RXD-129" value="" style="ellipse;whiteSpace=wrap;html=1;aspect=fixed;" vertex="1" parent="1">
          <mxGeometry x="1400" y="390" width="70" height="70" as="geometry" />
        </mxCell>
        <mxCell id="uLl7qdjxzRNiDO4C2RXD-130" value="" style="endArrow=none;html=1;entryX=0.5;entryY=0;entryDx=0;entryDy=0;exitX=0.5;exitY=1;exitDx=0;exitDy=0;" edge="1" parent="1" source="uLl7qdjxzRNiDO4C2RXD-129" target="uLl7qdjxzRNiDO4C2RXD-129">
          <mxGeometry width="50" height="50" relative="1" as="geometry">
            <mxPoint x="1660" y="560" as="sourcePoint" />
            <mxPoint x="1710" y="510" as="targetPoint" />
          </mxGeometry>
        </mxCell>
        <mxCell id="uLl7qdjxzRNiDO4C2RXD-131" value="" style="endArrow=none;html=1;exitX=1;exitY=0.5;exitDx=0;exitDy=0;" edge="1" parent="1" source="uLl7qdjxzRNiDO4C2RXD-129">
          <mxGeometry width="50" height="50" relative="1" as="geometry">
            <mxPoint x="1660" y="560" as="sourcePoint" />
            <mxPoint x="1435" y="425" as="targetPoint" />
          </mxGeometry>
        </mxCell>
        <mxCell id="uLl7qdjxzRNiDO4C2RXD-132" value="23 1/2" style="text;html=1;strokeColor=none;fillColor=none;align=center;verticalAlign=middle;whiteSpace=wrap;rounded=0;" vertex="1" parent="1">
          <mxGeometry x="1440" y="400" width="40" height="20" as="geometry" />
        </mxCell>
        <mxCell id="uLl7qdjxzRNiDO4C2RXD-133" value="23 1/2" style="text;html=1;strokeColor=none;fillColor=none;align=center;verticalAlign=middle;whiteSpace=wrap;rounded=0;" vertex="1" parent="1">
          <mxGeometry x="1440" y="430" width="40" height="20" as="geometry" />
        </mxCell>
        <mxCell id="uLl7qdjxzRNiDO4C2RXD-134" value="13" style="text;html=1;strokeColor=none;fillColor=none;align=center;verticalAlign=middle;whiteSpace=wrap;rounded=0;" vertex="1" parent="1">
          <mxGeometry x="1400" y="415" width="40" height="20" as="geometry" />
        </mxCell>
        <mxCell id="uLl7qdjxzRNiDO4C2RXD-136" value="M(4)" style="text;html=1;align=center;verticalAlign=middle;resizable=0;points=[];autosize=1;strokeColor=none;fillColor=none;" vertex="1" parent="1">
          <mxGeometry x="1300" y="400" width="40" height="20" as="geometry" />
        </mxCell>
        <mxCell id="uLl7qdjxzRNiDO4C2RXD-137" value="" style="html=1;labelBackgroundColor=#ffffff;startArrow=none;startFill=0;startSize=6;endArrow=classic;endFill=1;endSize=6;jettySize=auto;orthogonalLoop=1;strokeWidth=1;dashed=1;fontSize=14;entryX=0.5;entryY=1;entryDx=0;entryDy=0;exitX=1;exitY=1;exitDx=0;exitDy=0;" edge="1" parent="1" source="uLl7qdjxzRNiDO4C2RXD-74" target="uLl7qdjxzRNiDO4C2RXD-129">
          <mxGeometry width="60" height="60" relative="1" as="geometry">
            <mxPoint x="1065" y="689.9999999999998" as="sourcePoint" />
            <mxPoint x="1065" y="470" as="targetPoint" />
          </mxGeometry>
        </mxCell>
        <mxCell id="uLl7qdjxzRNiDO4C2RXD-138" value="" style="html=1;labelBackgroundColor=#ffffff;startArrow=none;startFill=0;startSize=6;endArrow=classic;endFill=1;endSize=6;jettySize=auto;orthogonalLoop=1;strokeWidth=1;dashed=1;fontSize=14;entryX=0.5;entryY=0;entryDx=0;entryDy=0;exitX=1;exitY=0;exitDx=0;exitDy=0;" edge="1" parent="1" source="uLl7qdjxzRNiDO4C2RXD-69" target="uLl7qdjxzRNiDO4C2RXD-129">
          <mxGeometry width="60" height="60" relative="1" as="geometry">
            <mxPoint x="1075" y="699.9999999999998" as="sourcePoint" />
            <mxPoint x="1075" y="480" as="targetPoint" />
          </mxGeometry>
        </mxCell>
        <mxCell id="uLl7qdjxzRNiDO4C2RXD-140" value="" style="endArrow=none;html=1;fillColor=#0612C4;strokeColor=#0800FF;" edge="1" parent="1">
          <mxGeometry width="50" height="50" relative="1" as="geometry">
            <mxPoint x="58.8235294117647" y="50" as="sourcePoint" />
            <mxPoint x="59" y="50" as="targetPoint" />
            <Array as="points">
              <mxPoint x="680" y="60" />
              <mxPoint x="590" y="230" />
              <mxPoint x="550" y="250" />
              <mxPoint x="560" y="340" />
              <mxPoint x="760" y="540" />
              <mxPoint x="890" y="780" />
              <mxPoint x="430" y="680" />
              <mxPoint x="40" y="440" />
            </Array>
          </mxGeometry>
        </mxCell>
        <mxCell id="uLl7qdjxzRNiDO4C2RXD-141" value="" style="endArrow=none;html=1;strokeColor=#FF0D0D;fillColor=#FFFF66;" edge="1" parent="1">
          <mxGeometry width="50" height="50" relative="1" as="geometry">
            <mxPoint x="700" y="60" as="sourcePoint" />
            <mxPoint x="700" y="60" as="targetPoint" />
            <Array as="points">
              <mxPoint x="640" y="190" />
              <mxPoint x="570" y="310" />
              <mxPoint x="730" y="450" />
              <mxPoint x="790" y="590" />
              <mxPoint x="840" y="660" />
              <mxPoint x="1010" y="760" />
              <mxPoint x="1160" y="750" />
              <mxPoint x="1110" y="400" />
              <mxPoint x="1140" y="50" />
            </Array>
          </mxGeometry>
        </mxCell>
        <mxCell id="uLl7qdjxzRNiDO4C2RXD-142" value="" style="endArrow=none;html=1;strokeColor=#009900;fillColor=#FFFF66;" edge="1" parent="1">
          <mxGeometry width="50" height="50" relative="1" as="geometry">
            <mxPoint x="1510" y="310" as="sourcePoint" />
            <mxPoint x="1510" y="310" as="targetPoint" />
            <Array as="points">
              <mxPoint x="1480" y="610" />
              <mxPoint x="1260" y="630" />
              <mxPoint x="1120" y="480" />
              <mxPoint x="1120" y="370" />
              <mxPoint x="1470" y="310" />
            </Array>
          </mxGeometry>
        </mxCell>
      </root>
    </mxGraphModel>
  </diagram>
</mxfile>
